<svg width="20" height="19" viewBox="0 0 20 19" fill="none" xmlns="http://www.w3.org/2000/svg">
<path d="M4.39648 2.50002C4.39622 3.03046 4.18525 3.53906 3.80999 3.91394C3.43473 4.28883 2.92592 4.49929 2.39548 4.49902C1.86505 4.49876 1.35645 4.28779 0.981564 3.91253C0.606679 3.53727 0.396219 3.02846 0.396485 2.49802C0.39675 1.96759 0.607718 1.45899 0.982978 1.0841C1.35824 0.709218 1.86705 0.498758 2.39748 0.499024C2.92792 0.499289 3.43652 0.710257 3.81141 1.08552C4.18629 1.46078 4.39675 1.96959 4.39648 2.50002ZM4.45648 5.98002H0.456485V18.5H4.45648V5.98002ZM10.7765 5.98002H6.79648V18.5H10.7365V11.93C10.7365 8.27002 15.5065 7.93002 15.5065 11.93V18.5H19.4565V10.57C19.4565 4.40002 12.3965 4.63002 10.7365 7.66002L10.7765 5.98002Z" fill="#4F697D"/>
</svg>
