<svg width="18" height="19" viewBox="0 0 18 19" fill="none" xmlns="http://www.w3.org/2000/svg">
<path fill-rule="evenodd" clip-rule="evenodd" d="M9.07505 0.879886C13.7787 0.875981 17.7001 4.80523 17.7001 9.49977C17.7001 14.1982 13.7787 18.1157 9.07505 18.1131C7.83897 18.1138 6.61713 17.8493 5.492 17.3374L1.22306 18.1092C1.10974 18.13 0.99294 18.1203 0.884599 18.0811C0.776258 18.042 0.680255 17.9747 0.6064 17.8863C0.532544 17.7979 0.483484 17.6915 0.464231 17.5779C0.444977 17.4643 0.456221 17.3476 0.496814 17.2398L1.72023 13.9887C0.896004 12.6359 0.45929 11.0826 0.457769 9.49847C0.45907 4.80393 4.37661 0.882489 9.07505 0.879886ZM13.4026 13.1609C12.4434 13.9366 10.9583 14.7201 9.53839 13.8091C7.67723 12.613 6.02952 11.0421 4.83474 9.1796C4.13323 8.08893 4.79309 6.34231 5.77963 5.27768C6.17269 4.85209 6.82084 4.91976 7.24903 5.31022L8.14968 6.13277C8.42299 6.38266 8.43341 6.81736 8.26291 7.14794C7.9935 7.66594 7.83471 8.36225 8.1679 8.88155C8.58698 9.5323 9.10238 10.1739 10.3336 10.5475C10.7058 10.662 11.1835 10.6126 11.5896 10.4486C11.9293 10.3106 12.3601 10.3119 12.6112 10.58L13.4494 11.4715C13.9115 11.9635 13.9271 12.7366 13.4026 13.1609Z" fill="#4F697D"/>
</svg>
