<svg width="25" height="25" viewBox="0 0 25 25" fill="none" xmlns="http://www.w3.org/2000/svg">
<path d="M4.99102 5.48439C5.17207 5.46335 5.35543 5.49219 5.52128 5.5678C5.68713 5.64342 5.82916 5.76292 5.93202 5.91339C7.40802 8.07239 9.18002 8.97039 11.147 9.17439C11.243 8.33339 11.47 7.50239 11.897 6.77039C12.523 5.69639 13.541 4.90639 14.995 4.61439C17.005 4.21039 18.535 4.93839 19.422 5.82939L21.214 5.49439C21.4015 5.45926 21.5952 5.4785 21.7721 5.54984C21.9491 5.62119 22.1019 5.74166 22.2126 5.89704C22.3233 6.05242 22.3873 6.23623 22.3969 6.42677C22.4065 6.61731 22.3615 6.80663 22.267 6.97239L20.547 9.99439C20.704 14.3554 19.492 17.3994 16.908 19.4964C15.538 20.6084 13.576 21.2394 11.423 21.4344C9.25302 21.6304 6.80002 21.3934 4.36202 20.6814C4.15371 20.6206 3.97082 20.4938 3.84094 20.3199C3.71107 20.1461 3.64126 19.9347 3.64205 19.7178C3.64284 19.5008 3.71419 19.2899 3.84532 19.117C3.97646 18.9442 4.16027 18.8186 4.36902 18.7594C5.59502 18.4104 6.52902 18.1094 7.37202 17.5824C6.17302 16.9464 5.29002 16.1144 4.66502 15.1664C3.79702 13.8484 3.47502 12.3784 3.41102 11.0534C3.34702 9.72839 3.53802 8.50039 3.74002 7.61539C3.85502 7.11039 3.98902 6.60439 4.17402 6.12039C4.23927 5.94978 4.35001 5.80031 4.49422 5.68818C4.63842 5.57606 4.80959 5.50558 4.99102 5.48439Z" fill="#4F697D"/>
</svg>
