<svg width="25" height="25" viewBox="0 0 25 25" fill="none" xmlns="http://www.w3.org/2000/svg">
<path fill-rule="evenodd" clip-rule="evenodd" d="M12.3965 4.5C13.2515 4.5 14.1285 4.522 14.9785 4.558L15.9825 4.606L16.9435 4.663L17.8435 4.724L18.6655 4.788C19.5575 4.85628 20.3969 5.23695 21.036 5.86304C21.6751 6.48913 22.0729 7.32054 22.1595 8.211L22.1995 8.636L22.2745 9.546C22.3445 10.489 22.3965 11.517 22.3965 12.5C22.3965 13.483 22.3445 14.511 22.2745 15.454L22.1995 16.364C22.1865 16.51 22.1735 16.651 22.1595 16.789C22.0729 17.6796 21.6749 18.5112 21.0356 19.1373C20.3963 19.7634 19.5567 20.1439 18.6645 20.212L17.8445 20.275L16.9445 20.337L15.9825 20.394L14.9785 20.442C14.1183 20.4794 13.2575 20.4987 12.3965 20.5C11.5355 20.4987 10.6747 20.4794 9.81448 20.442L8.81048 20.394L7.84948 20.337L6.94948 20.275L6.12748 20.212C5.23543 20.1437 4.39604 19.7631 3.75696 19.137C3.11788 18.5109 2.72006 17.6795 2.63348 16.789L2.59348 16.364L2.51848 15.454C2.44202 14.4711 2.40133 13.4858 2.39648 12.5C2.39648 11.517 2.44848 10.489 2.51848 9.546L2.59348 8.636C2.60648 8.49 2.61948 8.349 2.63348 8.211C2.72003 7.3207 3.1177 6.48942 3.75658 5.86334C4.39545 5.23727 5.23461 4.8565 6.12648 4.788L6.94748 4.724L7.84748 4.663L8.80948 4.606L9.81348 4.558C10.674 4.52063 11.5352 4.5013 12.3965 4.5ZM10.3965 10.075V14.925C10.3965 15.387 10.8965 15.675 11.2965 15.445L15.4965 13.02C15.5879 12.9674 15.6638 12.8916 15.7166 12.8003C15.7694 12.709 15.7972 12.6055 15.7972 12.5C15.7972 12.3945 15.7694 12.291 15.7166 12.1997C15.6638 12.1084 15.5879 12.0326 15.4965 11.98L11.2965 9.556C11.2052 9.50332 11.1017 9.4756 10.9964 9.47562C10.891 9.47563 10.7875 9.50339 10.6963 9.5561C10.6051 9.6088 10.5294 9.6846 10.4767 9.77587C10.4241 9.86713 10.3964 9.97065 10.3965 10.076V10.075Z" fill="#4F697D"/>
</svg>
